<mxfile host="app.diagrams.net" modified="2024-06-02T18:35:21.896Z" agent="Mozilla/5.0 (Macintosh; Intel Mac OS X 10_15_7) AppleWebKit/537.36 (KHTML, like Gecko) Chrome/125.0.0.0 Safari/537.36" etag="eY_wVTdmSX9g-LOoEP65" version="24.4.13" type="device">
  <diagram name="Page-1" id="QbXM75GRSuZM0EvKwjHo">
    <mxGraphModel dx="798" dy="797" grid="1" gridSize="10" guides="1" tooltips="1" connect="1" arrows="1" fold="1" page="1" pageScale="1" pageWidth="850" pageHeight="1100" math="0" shadow="0">
      <root>
        <mxCell id="0" />
        <mxCell id="1" parent="0" />
        <mxCell id="5jbg6RvLzjNxE5YghHj3-3" value="" style="group" vertex="1" connectable="0" parent="1">
          <mxGeometry x="295.75" y="110" width="225" height="140" as="geometry" />
        </mxCell>
        <mxCell id="5jbg6RvLzjNxE5YghHj3-1" value="" style="outlineConnect=0;dashed=0;verticalLabelPosition=bottom;verticalAlign=top;align=center;html=1;shape=mxgraph.aws3.ecs;fillColor=#F58534;gradientColor=none;" vertex="1" parent="5jbg6RvLzjNxE5YghHj3-3">
          <mxGeometry x="43.90243902439025" width="120.73170731707319" height="107.6923076923077" as="geometry" />
        </mxCell>
        <mxCell id="5jbg6RvLzjNxE5YghHj3-2" value="AWS Elastic Container Service (ECS)" style="text;html=1;align=center;verticalAlign=middle;resizable=0;points=[];autosize=1;strokeColor=none;fillColor=none;" vertex="1" parent="5jbg6RvLzjNxE5YghHj3-3">
          <mxGeometry x="2.496585365853658" y="107.6923076923077" width="220" height="30" as="geometry" />
        </mxCell>
        <mxCell id="5jbg6RvLzjNxE5YghHj3-4" value="" style="outlineConnect=0;dashed=0;verticalLabelPosition=bottom;verticalAlign=top;align=center;html=1;shape=mxgraph.aws3.ec2;fillColor=#F58534;gradientColor=none;" vertex="1" parent="1">
          <mxGeometry x="370" y="360" width="76.5" height="93" as="geometry" />
        </mxCell>
        <mxCell id="5jbg6RvLzjNxE5YghHj3-5" value="AWS Elastic Compute Cloud (EC2)" style="text;html=1;align=center;verticalAlign=middle;resizable=0;points=[];autosize=1;strokeColor=none;fillColor=none;" vertex="1" parent="1">
          <mxGeometry x="303.25" y="453" width="210" height="30" as="geometry" />
        </mxCell>
        <mxCell id="5jbg6RvLzjNxE5YghHj3-6" value="" style="endArrow=classic;html=1;rounded=0;" edge="1" parent="1" source="5jbg6RvLzjNxE5YghHj3-2" target="5jbg6RvLzjNxE5YghHj3-4">
          <mxGeometry width="50" height="50" relative="1" as="geometry">
            <mxPoint x="405" y="250" as="sourcePoint" />
            <mxPoint x="440" y="380" as="targetPoint" />
          </mxGeometry>
        </mxCell>
        <mxCell id="5jbg6RvLzjNxE5YghHj3-7" value="Docker container running on EC2 instance (cloud server)" style="edgeLabel;html=1;align=center;verticalAlign=middle;resizable=0;points=[];" vertex="1" connectable="0" parent="5jbg6RvLzjNxE5YghHj3-6">
          <mxGeometry x="0.0372" y="-1" relative="1" as="geometry">
            <mxPoint as="offset" />
          </mxGeometry>
        </mxCell>
        <mxCell id="5jbg6RvLzjNxE5YghHj3-8" value="" style="sketch=0;points=[[0,0,0],[0.25,0,0],[0.5,0,0],[0.75,0,0],[1,0,0],[0,1,0],[0.25,1,0],[0.5,1,0],[0.75,1,0],[1,1,0],[0,0.25,0],[0,0.5,0],[0,0.75,0],[1,0.25,0],[1,0.5,0],[1,0.75,0]];outlineConnect=0;fontColor=#232F3E;fillColor=#7AA116;strokeColor=#ffffff;dashed=0;verticalLabelPosition=bottom;verticalAlign=top;align=center;html=1;fontSize=12;fontStyle=0;aspect=fixed;shape=mxgraph.aws4.resourceIcon;resIcon=mxgraph.aws4.elastic_block_store;" vertex="1" parent="1">
          <mxGeometry x="650" y="367.5" width="78" height="78" as="geometry" />
        </mxCell>
        <mxCell id="5jbg6RvLzjNxE5YghHj3-9" value="AWS Elastic Block Storage (EBS)" style="text;html=1;align=center;verticalAlign=middle;resizable=0;points=[];autosize=1;strokeColor=none;fillColor=none;" vertex="1" parent="1">
          <mxGeometry x="589" y="445.5" width="200" height="30" as="geometry" />
        </mxCell>
        <mxCell id="5jbg6RvLzjNxE5YghHj3-10" value="" style="endArrow=classic;html=1;rounded=0;" edge="1" parent="1" source="5jbg6RvLzjNxE5YghHj3-4" target="5jbg6RvLzjNxE5YghHj3-8">
          <mxGeometry width="50" height="50" relative="1" as="geometry">
            <mxPoint x="450" y="400" as="sourcePoint" />
            <mxPoint x="500" y="350" as="targetPoint" />
          </mxGeometry>
        </mxCell>
        <mxCell id="5jbg6RvLzjNxE5YghHj3-11" value="CS2 (and server) will be installed&lt;div&gt;on EBS&lt;/div&gt;" style="edgeLabel;html=1;align=center;verticalAlign=middle;resizable=0;points=[];" vertex="1" connectable="0" parent="5jbg6RvLzjNxE5YghHj3-10">
          <mxGeometry x="-0.0319" y="-2" relative="1" as="geometry">
            <mxPoint y="1" as="offset" />
          </mxGeometry>
        </mxCell>
        <mxCell id="5jbg6RvLzjNxE5YghHj3-14" value="" style="endArrow=classic;html=1;rounded=0;" edge="1" parent="1" source="5jbg6RvLzjNxE5YghHj3-4" target="5jbg6RvLzjNxE5YghHj3-13">
          <mxGeometry width="50" height="50" relative="1" as="geometry">
            <mxPoint x="370" y="407" as="sourcePoint" />
            <mxPoint x="210" y="407" as="targetPoint" />
          </mxGeometry>
        </mxCell>
        <mxCell id="5jbg6RvLzjNxE5YghHj3-16" value="Publicly accessible&lt;div&gt;by static IP&lt;/div&gt;" style="edgeLabel;html=1;align=center;verticalAlign=middle;resizable=0;points=[];" vertex="1" connectable="0" parent="5jbg6RvLzjNxE5YghHj3-14">
          <mxGeometry x="0.0275" y="1" relative="1" as="geometry">
            <mxPoint as="offset" />
          </mxGeometry>
        </mxCell>
        <mxCell id="5jbg6RvLzjNxE5YghHj3-13" value="" style="outlineConnect=0;dashed=0;verticalLabelPosition=bottom;verticalAlign=top;align=center;html=1;shape=mxgraph.aws3.elastic_ip;fillColor=#F58534;gradientColor=none;" vertex="1" parent="1">
          <mxGeometry x="130" y="396" width="76.5" height="21" as="geometry" />
        </mxCell>
        <mxCell id="5jbg6RvLzjNxE5YghHj3-15" value="AWS Elastic IP" style="text;html=1;align=center;verticalAlign=middle;resizable=0;points=[];autosize=1;strokeColor=none;fillColor=none;" vertex="1" parent="1">
          <mxGeometry x="125" y="417" width="100" height="30" as="geometry" />
        </mxCell>
        <mxCell id="5jbg6RvLzjNxE5YghHj3-17" value="" style="endArrow=classic;html=1;rounded=0;" edge="1" parent="1" source="5jbg6RvLzjNxE5YghHj3-1" target="5jbg6RvLzjNxE5YghHj3-18">
          <mxGeometry width="50" height="50" relative="1" as="geometry">
            <mxPoint x="420" y="470" as="sourcePoint" />
            <mxPoint x="680" y="160" as="targetPoint" />
          </mxGeometry>
        </mxCell>
        <mxCell id="5jbg6RvLzjNxE5YghHj3-20" value="Docker image is stored in ECR" style="edgeLabel;html=1;align=center;verticalAlign=middle;resizable=0;points=[];" vertex="1" connectable="0" parent="5jbg6RvLzjNxE5YghHj3-17">
          <mxGeometry x="-0.2925" y="-1" relative="1" as="geometry">
            <mxPoint x="29" y="-1" as="offset" />
          </mxGeometry>
        </mxCell>
        <mxCell id="5jbg6RvLzjNxE5YghHj3-18" value="" style="sketch=0;points=[[0,0,0],[0.25,0,0],[0.5,0,0],[0.75,0,0],[1,0,0],[0,1,0],[0.25,1,0],[0.5,1,0],[0.75,1,0],[1,1,0],[0,0.25,0],[0,0.5,0],[0,0.75,0],[1,0.25,0],[1,0.5,0],[1,0.75,0]];outlineConnect=0;fontColor=#232F3E;fillColor=#ED7100;strokeColor=#ffffff;dashed=0;verticalLabelPosition=bottom;verticalAlign=top;align=center;html=1;fontSize=12;fontStyle=0;aspect=fixed;shape=mxgraph.aws4.resourceIcon;resIcon=mxgraph.aws4.ecr;" vertex="1" parent="1">
          <mxGeometry x="660" y="124.85" width="78" height="78" as="geometry" />
        </mxCell>
        <mxCell id="5jbg6RvLzjNxE5YghHj3-19" value="Elastic Container Registry (ECR)" style="text;html=1;align=center;verticalAlign=middle;resizable=0;points=[];autosize=1;strokeColor=none;fillColor=none;" vertex="1" parent="1">
          <mxGeometry x="599" y="202.85" width="200" height="30" as="geometry" />
        </mxCell>
      </root>
    </mxGraphModel>
  </diagram>
</mxfile>
